<svg xmlns="http://www.w3.org/2000/svg" viewBox="0 0 560 120" width="560" height="120">
<svg x="8.00" y="18.00" width="78.76" height="84.00" viewBox="0 0 667 711.3511" preserveAspectRatio="xMidYMid meet"><defs>
<clipPath id="clip_1">
<path transform="matrix(1,0,0,-1,-496.5,1916.5)" d="M496.5 1205.1489H1163.5V1916.5H496.5Z" clip-rule="evenodd"/>
</clipPath>
<clipPath id="clip_2">
<path transform="matrix(1,0,0,-1,-496.5,1916.5)" d="M0 3006H3006V0H0Z"/>
</clipPath>
<path id="font_3_2" d="M.07598877 0H.2899933V.28808595H.57398989V0H.7879944V.7001953H.57398989V.44508363H.2899933V.7001953H.07598877V0Z"/>
<path id="font_3_10" d="M.43998719-.01171875C.6599884-.01171875 .80400088 .0942688 .80400088 .28825379V.7001953H.58999636V.28025819C.58999636 .19126892 .5369873 .14826966 .43998719 .14826966 .34298707 .14826966 .2899933 .19126892 .2899933 .28025819V.7001953H.07598877V.28825379C.07598877 .0942688 .22200012-.01171875 .43998719-.01171875Z"/>
<path id="font_3_7" d="M.2899933 .24707031H.3919983L.5519867 0H.7849884L.58099368 .2780609C.67099 .3100586 .72898867 .37606813 .72898867 .47312928 .72898867 .6251831 .59298709 .7001953 .3849945 .7001953H.07598877V0H.2899933V.24707031M.2899933 .3930664V.55418398H.3909912C.47299195 .55418398 .5169983 .5261688 .5169983 .47312928 .5169983 .42008973 .44799806 .3930664 .3909912 .3930664H.2899933Z"/>
<path id="font_3_12" d="M.42799378 .20405579 .23999024 .7001953H.009994507L.28799439 0H.56900027L.84599307 .7001953H.61698916L.42799378 .20405579Z"/>
<path id="font_3_3" d="M.08099365 .7001953V0H.29499818V.7001953H.08099365Z"/>
<path id="font_3_6" d="M.037994386 .3500824C.037994386 .14227295 .18899536-.01171875 .43598939-.01171875 .68299868-.01171875 .83399966 .14227295 .83399966 .3500824 .83399966 .5569 .68299868 .71191409 .43598939 .71191409 .18899536 .71191409 .037994386 .5569 .037994386 .3500824M.2539978 .3500824C.2539978 .4749756 .32398988 .5519104 .43598939 .5519104 .5479889 .5519104 .6179962 .4749756 .6179962 .3500824 .6179962 .22419739 .5479889 .14727783 .43598939 .14727783 .32398988 .14727783 .2539978 .22419739 .2539978 .3500824Z"/>
<path id="font_3_5" d="M.07598877 0H.2829895V.39109803L.58699038 0H.7809906V.7001953H.57299807V.30908204L.2689972 .7001953H.07598877V0Z"/>
<path id="font_3_8" d="M.6799927 .4929657C.6559906 .62290957 .5499878 .71191409 .35499574 .71191409 .16299439 .71191409 .057998659 .62789919 .057998659 .5079498 .057998659 .40403749 .115997318 .32710267 .29699708 .2831421 .43998719 .2481842 .47200013 .23019409 .47200013 .19223023 .47200013 .16325379 .43299867 .13627625 .35798646 .13627625 .2669983 .13627625 .19999695 .16125489 .125 .21720886L.035995485 .14126587C.11898804 .04727173 .23599243-.01171875 .3619995-.01171875 .56900027-.01171875 .6879883 .074279788 .6879883 .20420838 .6879883 .33010865 .58799746 .38406373 .41299439 .4290161 .3019867 .45700074 .27398683 .4829712 .27398683 .5129547 .27398683 .5389252 .30699159 .562912 .36698915 .562912 .42799378 .562912 .46899415 .53492739 .47898866 .49197389 .54599 .49197389 .61299136 .4929657 .6799927 .4929657Z"/>
<path id="font_3_11" d="M.23899842 .7001953H.004989624L.2869873 .2730713V0H.5009918V.2730713L.7839966 .7001953H.548996L.3939972 .42611695 .23899842 .7001953Z"/>
<path id="font_3_9" d="M.24499512 0H.45899964V.54219058H.69200137V.7001953H.011993408V.54219058H.24499512V0Z"/>
<path id="font_3_1" d="M.07598877 0H.6489868V.1519928H.29100038V.2841797H.59599307V.4351654H.29100038V.54818728H.6380005V.7001953H.07598877V0Z"/>
<path id="font_3_4" d="M.58499148 .12702942 .7619934 .38510133V0H.96899417V.7001953H.769989L.5219879 .32208253 .2749939 .7001953H.07598877V0H.2829895V.38510133L.45899964 .12702942H.58499148Z"/>
</defs>
<g clip-path="url(#clip_1)">
<g>

</g>
<g>
</g>
<g>
</g>
<g>
</g>
<g>
</g>
<g>
<g clip-path="url(#clip_2)">
<path transform="matrix(1,0,0,-1,26,109)" d="M0 0 308 85 475 39 407 26 308 52 30-22 28-292C28-292 32-361 109-426 109-426 178-485.64 237.5-510.82L308-544C308-544 423.001-488.69 440-476 476.266-448.928 529-423 569-350 580.734-328.586 589-313 587-254L587.486-21.22 513-2 554 18 617 0V-285.46C617-285.46 615.071-355.146 571-404 555.844-420.801 526.186-455.635 507-468 481.646-484.34 430.481-518.083 406-532 386.867-542.877 314.305-578.351 308.5-576.34 308.5-576.34 167-512 154-496 154-496 78-446 61-422 61-422 11-370 3-312 3-312-2-283.12 0-253.06Z" fill="#ffffff"/>

<path transform="matrix(1,0,0,-1,239,151)" d="M0 0 356 96 44-81Z" fill="#72c679"/>
<path transform="matrix(1,0,0,-1,155,134)" d="M0 0-68-19C-68-19-67.67-197.003-67-257-66.625-290.526-38-339 2-374L0-210H104V-445.18L173-477V-93.34C173-93.34 135.586-113.499 123-120 118.947-122.094 119-122 105-117V-144L0-143Z" fill="#ffffff"/>

<path transform="matrix(1,0,0,-1,355,472)" d="M0 0C4.505-18.945 48.632 19.637 57.002 21.999 57 22 57-23.54 57-23.54 79.579-4.221 161.111 26.686 154.787 78.417 154.42 81.423 152.428 84.004 149.618 85.132 110.599 100.8 21.256 60.239-3.998 145.005-32.022 305.978 148.268 252.454 225.22 260.62V195.82L76 196C76 196 62 195.04 62 176.02 65.768 120.829 195.619 198.394 222.995 108.995 253.876 8.153 92.246-90.215-2.005-132.992-2-133 0 0 0 0" fill="#ffffff"/>

</g>
</g>
<g>














</g>
<g>
</g>
</g></svg><g fill="#8A9AB5" transform="translate(108.76,46.00) scale(0.01895,-0.01895)"><path transform="translate(0.0,0)" d="M76 0V686H351Q455 686 529.0 649.0Q603 612 643.0 536.5Q683 461 683 343Q683 226 643.0 150.0Q603 74 529.0 37.0Q455 0 351 0ZM206 111H351Q399 111 436.0 125.0Q473 139 498.0 166.5Q523 194 536.0 235.5Q549 277 549 332V353Q549 409 536.0 450.5Q523 492 498.0 519.5Q473 547 436.0 561.0Q399 575 351 575H206Z"/><path transform="translate(928.0,0)" d="M76 0V686H611V575H206V406H567V295H206V111H617V0Z"/><path transform="translate(1800.0,0)" d="M332 -12Q275 -12 223.0 0.5Q171 13 131.0 39.5Q91 66 68.0 105.5Q45 145 45 199Q45 205 45.5 211.0Q46 217 46 220H177Q177 218 176.5 212.5Q176 207 176 203Q176 170 195.0 146.5Q214 123 250.0 110.5Q286 98 335 98Q368 98 393.5 102.0Q419 106 437.5 113.5Q456 121 468.0 131.5Q480 142 485.5 155.0Q491 168 491 183Q491 212 473.0 231.0Q455 250 424.5 263.0Q394 276 355.5 286.5Q317 297 276.5 308.0Q236 319 197.5 334.5Q159 350 128.5 372.0Q98 394 80.0 427.5Q62 461 62 508Q62 556 82.5 592.0Q103 628 140.5 651.5Q178 675 228.0 686.5Q278 698 337 698Q392 698 440.5 686.5Q489 675 526.0 650.5Q563 626 584.0 588.5Q605 551 605 499V487H476V497Q476 526 458.5 546.0Q441 566 409.5 577.0Q378 588 336 588Q291 588 259.0 579.5Q227 571 210.0 554.5Q193 538 193 514Q193 489 211.0 472.0Q229 455 259.5 443.0Q290 431 328.5 421.0Q367 411 407.5 399.5Q448 388 486.5 373.0Q525 358 555.5 335.5Q586 313 604.0 280.0Q622 247 622 201Q622 124 584.5 77.0Q547 30 481.5 9.0Q416 -12 332 -12Z"/><path transform="translate(2667.0,0)" d="M76 0V686H611V575H206V406H567V295H206V111H617V0Z"/><path transform="translate(3539.0,0)" d="M76 0V686H200L493 281Q498 275 505.0 264.5Q512 254 518.0 244.0Q524 234 526 228H531Q531 242 531.0 255.0Q531 268 531 281V686H656V0H533L239 408Q231 420 220.5 437.5Q210 455 206 462H201Q201 449 201.0 435.5Q201 422 201 408V0Z"/><path transform="translate(4471.0,0)" d="M260 0 10 686H151L314 214Q318 204 322.0 191.0Q326 178 330.0 166.5Q334 155 337 146H342Q345 154 348.5 165.0Q352 176 356.0 188.5Q360 201 364 213L526 686H661L411 0Z"/><path transform="translate(5342.0,0)" d="M391 -12Q284 -12 206.0 26.5Q128 65 86.5 144.0Q45 223 45 343Q45 464 86.5 542.5Q128 621 206.0 659.5Q284 698 391 698Q499 698 576.5 659.5Q654 621 695.5 542.5Q737 464 737 343Q737 223 695.5 144.0Q654 65 576.5 26.5Q499 -12 391 -12ZM391 98Q443 98 482.5 113.0Q522 128 549.0 157.5Q576 187 590.0 230.5Q604 274 604 331V353Q604 411 590.0 455.0Q576 499 549.0 528.5Q522 558 482.5 573.0Q443 588 391 588Q339 588 299.5 573.0Q260 558 233.0 528.5Q206 499 192.5 455.0Q179 411 179 353V331Q179 274 192.5 230.5Q206 187 233.0 157.5Q260 128 299.5 113.0Q339 98 391 98Z"/><path transform="translate(6324.0,0)" d="M76 0V686H206V113H550V0Z"/><path transform="translate(7094.0,0)" d="M260 0 10 686H151L314 214Q318 204 322.0 191.0Q326 178 330.0 166.5Q334 155 337 146H342Q345 154 348.5 165.0Q352 176 356.0 188.5Q360 201 364 213L526 686H661L411 0Z"/><path transform="translate(7965.0,0)" d="M76 0V686H206V0Z"/><path transform="translate(8447.0,0)" d="M76 0V686H351Q455 686 529.0 649.0Q603 612 643.0 536.5Q683 461 683 343Q683 226 643.0 150.0Q603 74 529.0 37.0Q455 0 351 0ZM206 111H351Q399 111 436.0 125.0Q473 139 498.0 166.5Q523 194 536.0 235.5Q549 277 549 332V353Q549 409 536.0 450.5Q523 492 498.0 519.5Q473 547 436.0 561.0Q399 575 351 575H206Z"/><path transform="translate(9375.0,0)" d="M391 -12Q284 -12 206.0 26.5Q128 65 86.5 144.0Q45 223 45 343Q45 464 86.5 542.5Q128 621 206.0 659.5Q284 698 391 698Q499 698 576.5 659.5Q654 621 695.5 542.5Q737 464 737 343Q737 223 695.5 144.0Q654 65 576.5 26.5Q499 -12 391 -12ZM391 98Q443 98 482.5 113.0Q522 128 549.0 157.5Q576 187 590.0 230.5Q604 274 604 331V353Q604 411 590.0 455.0Q576 499 549.0 528.5Q522 558 482.5 573.0Q443 588 391 588Q339 588 299.5 573.0Q260 558 233.0 528.5Q206 499 192.5 455.0Q179 411 179 353V331Q179 274 192.5 230.5Q206 187 233.0 157.5Q260 128 299.5 113.0Q339 98 391 98Z"/><path transform="translate(10757.0,0)" d="M76 0V686H420Q496 686 545.5 659.0Q595 632 620.0 583.0Q645 534 645 466Q645 399 619.0 349.0Q593 299 541.5 271.5Q490 244 413 244H206V0ZM206 355H409Q459 355 486.5 384.5Q514 414 514 466Q514 501 502.0 525.0Q490 549 467.0 562.0Q444 575 409 575H206Z"/><path transform="translate(11627.0,0)" d="M391 -12Q284 -12 206.0 26.5Q128 65 86.5 144.0Q45 223 45 343Q45 464 86.5 542.5Q128 621 206.0 659.5Q284 698 391 698Q499 698 576.5 659.5Q654 621 695.5 542.5Q737 464 737 343Q737 223 695.5 144.0Q654 65 576.5 26.5Q499 -12 391 -12ZM391 98Q443 98 482.5 113.0Q522 128 549.0 157.5Q576 187 590.0 230.5Q604 274 604 331V353Q604 411 590.0 455.0Q576 499 549.0 528.5Q522 558 482.5 573.0Q443 588 391 588Q339 588 299.5 573.0Q260 558 233.0 528.5Q206 499 192.5 455.0Q179 411 179 353V331Q179 274 192.5 230.5Q206 187 233.0 157.5Q260 128 299.5 113.0Q339 98 391 98Z"/><path transform="translate(12609.0,0)" d="M76 0V686H437Q513 686 563.0 660.0Q613 634 638.0 586.0Q663 538 663 473Q663 406 633.0 354.5Q603 303 545 277L687 0H545L419 255H206V0ZM206 364H427Q477 364 504.0 393.0Q531 422 531 473Q531 506 519.0 528.5Q507 551 484.0 563.0Q461 575 427 575H206Z"/></g><g fill="#FFFFFF" transform="translate(108.76,88.00) scale(0.04956,-0.04956)"><path transform="translate(0.0,0)" d="M75.565185546875 0V686.434814453125H225.3492431640625V413.522216796875H528.60888671875V686.434814453125H678.3929443359375V0H528.60888671875V287.608154296875H225.3492431640625V0Z"/><path transform="translate(759.0,0)" d="M234.174072265625 -12Q154.2607421875 -12 107.30426025390625 31.78277587890625Q60.3477783203125 75.5655517578125 60.3477783203125 174.2611083984375V526.434814453125H199.088134765625V196.6959228515625Q199.088134765625 171.3048095703125 205.1533203125 153.78314208984375Q211.218505859375 136.261474609375 222.74017333984375 125.08758544921875Q234.2618408203125 113.9136962890625 251.1748046875 108.80499267578125Q268.0877685546875 103.6962890625 288.7833251953125 103.6962890625Q320.0440673828125 103.6962890625 344.8048095703125 118.71795654296875Q369.5655517578125 133.7396240234375 383.978515625 160.17425537109375Q398.3914794921875 186.60888671875 398.3914794921875 219.565185546875V526.434814453125H537.1318359375V0H422.652587890625L412.652587890625 72.174072265625H405.652587890625Q387.4351806640625 47.0870361328125 361.84814453125 28.04351806640625Q336.2611083984375 9 304.00018310546875 -1.5Q271.7392578125 -12 234.174072265625 -12Z"/><path transform="translate(1365.0,0)" d="M63.9129638671875 0V526.434814453125H179.1748046875L189.8270263671875 444.0870361328125H196.8270263671875Q207.479248046875 470.174072265625 223.28369140625 491.56536865234375Q239.088134765625 512.9566650390625 262.957763671875 525.804443359375Q286.827392578125 538.6522216796875 319.1751708984375 538.6522216796875Q336.0447998046875 538.6522216796875 350.08831787109375 535.434814453125Q364.1318359375 532.2174072265625 371.1318359375 529V402.69482421875H328.2618408203125Q297.04443359375 402.69482421875 273.37054443359375 394.19482421875Q249.6966552734375 385.69482421875 233.848876953125 368.02093505859375Q218.0010986328125 350.3470458984375 210.32720947265625 324.10797119140625Q202.6533203125 297.868896484375 202.6533203125 263.17333984375V0Z"/><path transform="translate(1750.0,0)" d="M200 0 3.9129638671875 526.434814453125H150.6099853515625L228.2181396484375 303.78369140625Q234.000732421875 287.4359130859375 242.2833251953125 259.04461669921875Q250.56591796875 230.6533203125 259.67462158203125 200.04461669921875Q268.7833251953125 169.4359130859375 275.000732421875 144.218505859375H280.435546875Q286.6529541015625 167.4359130859375 294.870361328125 197.54461669921875Q303.0877685546875 227.6533203125 311.47906494140625 256.4359130859375Q319.870361328125 285.218505859375 326.435546875 303.78369140625L403.2611083984375 526.434814453125H542.9144287109375L345.6099853515625 0Z"/><path transform="translate(2302.0,0)" d="M63.9129638671875 603.3040771484375V723.434814453125H202.6533203125V603.3040771484375ZM63.9129638671875 0V526.434814453125H202.6533203125V0Z"/><path transform="translate(2574.0,0)" d="M306.391845703125 -12Q219.522216796875 -12 159.67425537109375 17.7174072265625Q99.8262939453125 47.434814453125 69.0870361328125 108.54351806640625Q38.3477783203125 169.6522216796875 38.3477783203125 263.2174072265625Q38.3477783203125 357.7825927734375 69.0870361328125 418.39129638671875Q99.8262939453125 479 159.67425537109375 508.7174072265625Q219.522216796875 538.434814453125 306.391845703125 538.434814453125Q394.0440673828125 538.434814453125 453.60943603515625 508.7174072265625Q513.1748046875 479 543.9140625 418.39129638671875Q574.6533203125 357.7825927734375 574.6533203125 263.2174072265625Q574.6533203125 169.6522216796875 543.9140625 108.54351806640625Q513.1748046875 47.434814453125 453.60943603515625 17.7174072265625Q394.0440673828125 -12 306.391845703125 -12ZM306.391845703125 95.6092529296875Q351.5655517578125 95.6092529296875 379.43499755859375 113.022216796875Q407.304443359375 130.4351806640625 420.04351806640625 165.21759033203125Q432.7825927734375 200 432.7825927734375 251.4344482421875V274.782958984375Q432.7825927734375 326.2174072265625 420.04351806640625 361.1085205078125Q407.304443359375 395.9996337890625 379.43499755859375 413.41259765625Q351.5655517578125 430.8255615234375 306.391845703125 430.8255615234375Q261.2181396484375 430.8255615234375 233.4573974609375 413.41259765625Q205.6966552734375 395.9996337890625 192.95758056640625 361.1085205078125Q180.218505859375 326.2174072265625 180.218505859375 274.782958984375V251.4344482421875Q180.218505859375 200 192.95758056640625 165.21759033203125Q205.6966552734375 130.4351806640625 233.4573974609375 113.022216796875Q261.2181396484375 95.6092529296875 306.391845703125 95.6092529296875Z"/><path transform="translate(3192.0,0)" d="M63.9129638671875 0V526.434814453125H179.1748046875L189.8270263671875 454.2607421875H196.8270263671875Q215.479248046875 479.7825927734375 240.74017333984375 498.7174072265625Q266.0010986328125 517.6522216796875 298.04461669921875 528.0435180664062Q330.088134765625 538.434814453125 367.6533203125 538.434814453125Q420.4796142578125 538.434814453125 459.4144287109375 519.2390747070312Q498.3492431640625 500.0433349609375 519.9144287109375 459.1737060546875Q541.4796142578125 418.3040771484375 541.4796142578125 352.1737060546875V0H401.9566650390625V329.7388916015625Q401.9566650390625 355.347412109375 395.8914794921875 372.7603759765625Q389.8262939453125 390.17333984375 378.30462646484375 401.34722900390625Q366.782958984375 412.5211181640625 349.97869873046875 417.62982177734375Q333.1744384765625 422.738525390625 312.261474609375 422.738525390625Q281.000732421875 422.738525390625 256.239990234375 407.71685791015625Q231.479248046875 392.6951904296875 217.0662841796875 366.76055908203125Q202.6533203125 340.825927734375 202.6533203125 306.86962890625V0Z"/></g><g fill="#72C679" transform="translate(309.05,88.00) scale(0.04956,-0.04956)"><path transform="translate(0.0,0)" d="M343.0877685546875 -12Q283.0440673828125 -12 228.97869873046875 0.065185546875Q174.913330078125 12.13037109375 133.50018310546875 38.4129638671875Q92.0870361328125 64.695556640625 68.32611083984375 105.5Q44.565185546875 146.304443359375 44.565185546875 203.5655517578125Q44.565185546875 208.6959228515625 44.95648193359375 214.15240478515625Q45.3477783203125 219.60888671875 45.565185546875 222.8262939453125H193.52294921875Q193.3055419921875 220.3914794921875 192.91424560546875 215.3262939453125Q192.52294921875 210.2611083984375 192.52294921875 206.478515625Q192.52294921875 174.1307373046875 210.4359130859375 152.26129150390625Q228.348876953125 130.391845703125 262.06610107421875 119.4136962890625Q295.7833251953125 108.435546875 341.08740234375 108.435546875Q369.5218505859375 108.435546875 392.4129638671875 111.67462158203125Q415.3040771484375 114.9136962890625 432.4996337890625 121.32666015625Q449.6951904296875 127.7396240234375 461.36907958984375 137.04388427734375Q473.04296875 146.34814453125 478.65167236328125 158.36981201171875Q484.2603759765625 170.3914794921875 484.2603759765625 184.9566650390625Q484.2603759765625 211.7825927734375 466.477783203125 229.0433349609375Q448.6951904296875 246.3040771484375 418.52130126953125 258.217041015625Q388.347412109375 270.1300048828125 350.39093017578125 279.86907958984375Q312.4344482421875 289.608154296875 272.26055908203125 300.28204345703125Q232.086669921875 310.9559326171875 194.13018798828125 326.34722900390625Q156.1737060546875 341.738525390625 125.99981689453125 364.06463623046875Q95.825927734375 386.3907470703125 78.0433349609375 420.3255615234375Q60.2607421875 454.2603759765625 60.2607421875 501.91259765625Q60.2607421875 552.521484375 81.73907470703125 589.825927734375Q103.2174072265625 627.13037109375 142.0218505859375 651.1738891601562Q180.8262939453125 675.2174072265625 232.02203369140625 686.8261108398438Q283.2177734375 698.434814453125 342.652587890625 698.434814453125Q399.1744384765625 698.434814453125 448.9788818359375 686.7174072265625Q498.7833251953125 675 536.870361328125 650.1738891601562Q574.9573974609375 625.3477783203125 596.609619140625 587.3042602539062Q618.2618408203125 549.2607421875 618.479248046875 496.6085205078125V484.6085205078125H472.521484375V493.3040771484375Q472.521484375 519.91259765625 456.86944580078125 539.04296875Q441.2174072265625 558.17333984375 412.3262939453125 568.9559326171875Q383.4351806640625 579.738525390625 343.6092529296875 579.738525390625Q301.870361328125 579.738525390625 272.37054443359375 571.7820434570312Q242.8707275390625 563.8255615234375 227.392578125 548.6300048828125Q211.9144287109375 533.4344482421875 211.9144287109375 512.0433349609375Q211.9144287109375 488.3477783203125 229.697021484375 472.434814453125Q247.4796142578125 456.5218505859375 277.65350341796875 445.3914794921875Q307.827392578125 434.2611083984375 345.78387451171875 424.913330078125Q383.7403564453125 415.5655517578125 423.91424560546875 404.7177734375Q464.088134765625 393.8699951171875 502.04461669921875 379.08740234375Q540.0010986328125 364.3048095703125 570.1749877929688 341.8048095703125Q600.348876953125 319.3048095703125 618.1314697265625 286.3048095703125Q635.9140625 253.3048095703125 635.9140625 206.8699951171875Q635.9140625 128.1307373046875 597.979248046875 79.8262939453125Q560.04443359375 31.5218505859375 493.8922119140625 9.76092529296875Q427.739990234375 -12 343.0877685546875 -12Z"/><path transform="translate(684.0,0)" d="M139.5655517578125 -188.08740234375Q102.782958984375 -188.08740234375 78.2611083984375 -182.58740234375Q53.7392578125 -177.08740234375 47.2607421875 -174.782958984375V-80.825927734375H108.478515625Q132.522216796875 -80.825927734375 152.97869873046875 -69.39111328125Q173.4351806640625 -57.956298828125 188.36981201171875 -39.39111328125Q203.304443359375 -20.825927734375 210 0L3.9129638671875 526.434814453125H150.6099853515625L240.7833251953125 282.6962890625Q247.3485107421875 266.131103515625 254.73980712890625 240.3485107421875Q262.131103515625 214.56591796875 270.02239990234375 187.39202880859375Q277.9136962890625 160.2181396484375 282.9136962890625 138.6529541015625H288.3485107421875Q292.3485107421875 153.435546875 297.23980712890625 172.2181396484375Q302.131103515625 191.000732421875 307.52239990234375 210.89202880859375Q312.9136962890625 230.7833251953125 318.6962890625 249.3485107421875Q324.4788818359375 267.9136962890625 328.261474609375 281.6962890625L403.2611083984375 526.434814453125H542.9144287109375L364.3055419921875 24.6085205078125Q348.6533203125 -18.913330078125 329.28369140625 -57.67425537109375Q309.9140625 -96.4351806640625 284.109619140625 -125.76129150390625Q258.30517578125 -155.08740234375 222.8485107421875 -171.58740234375Q187.391845703125 -188.08740234375 139.5655517578125 -188.08740234375Z"/><path transform="translate(1236.0,0)" d="M277.391845703125 -12Q222.3485107421875 -12 178.37017822265625 -0.1522216796875Q134.391845703125 11.695556640625 103.10906982421875 33.36944580078125Q71.8262939453125 55.0433349609375 55.26092529296875 85.08685302734375Q38.695556640625 115.13037109375 38.695556640625 152.5218505859375Q38.695556640625 157.0870361328125 39.08685302734375 160.97833251953125Q39.4781494140625 164.86962890625 39.695556640625 167.304443359375H173.8270263671875Q173.609619140625 165.0870361328125 173.609619140625 162.86962890625Q173.609619140625 160.6522216796875 173.609619140625 158.6522216796875Q174.609619140625 133.60888671875 189.63128662109375 118.08721923828125Q204.6529541015625 102.5655517578125 229.131103515625 95.782958984375Q253.6092529296875 89.0003662109375 281.3048095703125 89.0003662109375Q304.6959228515625 89.0003662109375 327.3262939453125 93.73944091796875Q349.9566650390625 98.478515625 365.34796142578125 110.00018310546875Q380.7392578125 121.5218505859375 380.7392578125 141.304443359375Q380.7392578125 165.3477783203125 361.28277587890625 178.15203857421875Q341.8262939453125 190.956298828125 310.1959228515625 199.19537353515625Q278.5655517578125 207.4344482421875 242.2177734375 216.5648193359375Q208.34814453125 224.91259765625 174.36981201171875 235.58648681640625Q140.3914794921875 246.2603759765625 112.69573974609375 263.36907958984375Q85 280.477783203125 67.8477783203125 307.91259765625Q50.695556640625 335.347412109375 50.695556640625 376.65185546875Q50.695556640625 418.4781494140625 68.67388916015625 448.7825927734375Q86.6522216796875 479.0870361328125 118.28277587890625 498.804443359375Q149.913330078125 518.5218505859375 192.32647705078125 528.1957397460938Q234.7396240234375 537.86962890625 283.6092529296875 537.86962890625Q330.1744384765625 537.86962890625 369.9788818359375 528.1957397460938Q409.7833251953125 518.5218505859375 440.13128662109375 500.0218505859375Q470.479248046875 481.5218505859375 487.39239501953125 454.26092529296875Q504.3055419921875 427 504.3055419921875 392.6085205078125Q504.3055419921875 386.4781494140625 503.91424560546875 380.02166748046875Q503.52294921875 373.565185546875 503.3055419921875 372.3477783203125H370.3914794921875V379.565185546875Q370.3914794921875 397.695556640625 359.10888671875 410.325927734375Q347.8262939453125 422.956298828125 327.413330078125 430.19537353515625Q307.0003662109375 437.4344482421875 278.261474609375 437.4344482421875Q258.1748046875 437.4344482421875 241.479248046875 434.19537353515625Q224.78369140625 430.956298828125 213.0662841796875 424.825927734375Q201.348876953125 418.695556640625 194.80535888671875 410.13037109375Q188.2618408203125 401.565185546875 188.2618408203125 390.13037109375Q188.2618408203125 372.6522216796875 202.50091552734375 362.41314697265625Q216.739990234375 352.174072265625 240.935546875 344.93499755859375Q265.131103515625 337.6959228515625 293.82666015625 329.5655517578125Q330.261474609375 320.2177734375 369.56591796875 310.58740234375Q408.870361328125 300.95703125 442.8922119140625 285.06573486328125Q476.9140625 269.1744384765625 498.0010986328125 239.63092041015625Q519.088134765625 210.08740234375 519.088134765625 160.1307373046875Q519.088134765625 112.3914794921875 500.60980224609375 79.0218505859375Q482.1314697265625 45.6522216796875 449.21832275390625 25.82611083984375Q416.30517578125 6 372.2833251953125 -3.0Q328.261474609375 -12 277.391845703125 -12Z"/><path transform="translate(1797.0,0)" d="M221.392578125 -12Q171.3055419921875 -12 140.37054443359375 5.9781494140625Q109.435546875 23.956298828125 95.43536376953125 54.56500244140625Q81.4351806640625 85.1737060546875 81.4351806640625 121.9566650390625V418.8255615234375H16.043701171875V526.434814453125H85.522216796875L112.0877685546875 676.2611083984375H220.175537109375V526.434814453125H315.7410888671875V418.8255615234375H220.175537109375V145.04443359375Q220.175537109375 121.2181396484375 231.175537109375 108.4136962890625Q242.175537109375 95.6092529296875 266.784423828125 95.6092529296875H315.7410888671875V4.434814453125Q304.4366455078125 0.2174072265625 287.97998046875 -3.5Q271.5233154296875 -7.2174072265625 253.89276123046875 -9.60870361328125Q236.26220703125 -12 221.392578125 -12Z"/><path transform="translate(2144.0,0)" d="M302.739990234375 -12Q216.3485107421875 -12 157.41351318359375 17.5Q98.478515625 47 68.41314697265625 108.0Q38.3477783203125 169 38.3477783203125 263.2174072265625Q38.3477783203125 357.7825927734375 68.304443359375 418.39129638671875Q98.2611083984375 479 156.54388427734375 508.7174072265625Q214.82666015625 538.434814453125 300.131103515625 538.434814453125Q380.2618408203125 538.434814453125 435.02294921875 509.7174072265625Q489.7840576171875 481 517.74072265625 421.565185546875Q545.6973876953125 362.13037109375 545.6973876953125 267.9129638671875V232.3477783203125H179.4359130859375Q181.0010986328125 186.174072265625 193.45758056640625 154.30462646484375Q205.9140625 122.4351806640625 232.54443359375 106.58740234375Q259.1748046875 90.7396240234375 302.6529541015625 90.7396240234375Q326.5225830078125 90.7396240234375 346.19647216796875 96.7396240234375Q365.870361328125 102.7396240234375 380.10943603515625 114.8048095703125Q394.3485107421875 126.8699951171875 402.08758544921875 144.782958984375Q409.82666015625 162.6959228515625 409.82666015625 185.7392578125H545.6973876953125Q545.6973876953125 136.3914794921875 528.0886840820312 99.174072265625Q510.47998046875 61.9566650390625 478.00164794921875 37.41314697265625Q445.5233154296875 12.86962890625 401.02313232421875 0.434814453125Q356.52294921875 -12 302.739990234375 -12ZM181.218505859375 320.0870361328125H402.6092529296875Q402.6092529296875 350.4781494140625 395.43536376953125 372.06500244140625Q388.261474609375 393.65185546875 375.1962890625 407.89093017578125Q362.131103515625 422.1300048828125 343.67462158203125 428.52130126953125Q325.2181396484375 434.91259765625 301.870361328125 434.91259765625Q264.1748046875 434.91259765625 238.65313720703125 422.347412109375Q213.1314697265625 409.7822265625 199.5662841796875 384.41278076171875Q186.0010986328125 359.0433349609375 181.218505859375 320.0870361328125Z"/><path transform="translate(2733.0,0)" d="M63.9129638671875 0V526.434814453125H179.1748046875L189.8270263671875 454.4781494140625H196.8270263671875Q214.2618408203125 479.7825927734375 237.5662841796875 498.7174072265625Q260.8707275390625 517.6522216796875 290.457763671875 528.0435180664062Q320.0447998046875 538.434814453125 354.26220703125 538.434814453125Q403.5233154296875 538.434814453125 440.3929443359375 518.4564819335938Q477.2625732421875 498.4781494140625 497.045166015625 454.4781494140625H504.045166015625Q521.47998046875 479.7825927734375 545.4583129882812 498.7174072265625Q569.4366455078125 517.6522216796875 600.0888671875 528.0435180664062Q630.7410888671875 538.434814453125 665.523681640625 538.434814453125Q715.5673828125 538.434814453125 752.43701171875 520.0216674804688Q789.306640625 501.6085205078125 809.9805297851562 461.521484375Q830.6544189453125 421.4344482421875 830.6544189453125 356.8692626953125V0H691.9140625V332.086669921875Q691.9140625 356.91259765625 686.348876953125 374.3255615234375Q680.78369140625 391.738525390625 670.8272094726562 402.12982177734375Q660.8707275390625 412.5211181640625 646.1316528320312 417.62982177734375Q631.392578125 422.738525390625 614.0447998046875 422.738525390625Q586.1318359375 422.738525390625 564.2188720703125 407.71685791015625Q542.305908203125 392.6951904296875 529.675537109375 366.76055908203125Q517.045166015625 340.825927734375 517.045166015625 306.86962890625V0H378.3048095703125V332.086669921875Q378.3048095703125 356.91259765625 372.7396240234375 374.3255615234375Q367.1744384765625 391.738525390625 357.21795654296875 402.12982177734375Q347.261474609375 412.5211181640625 332.52239990234375 417.62982177734375Q317.7833251953125 422.738525390625 300.435546875 422.738525390625Q272.5225830078125 422.738525390625 250.3270263671875 407.71685791015625Q228.1314697265625 392.6951904296875 215.39239501953125 366.76055908203125Q202.6533203125 340.825927734375 202.6533203125 306.86962890625V0Z"/><path transform="translate(3629.0,0)" d="M277.391845703125 -12Q222.3485107421875 -12 178.37017822265625 -0.1522216796875Q134.391845703125 11.695556640625 103.10906982421875 33.36944580078125Q71.8262939453125 55.0433349609375 55.26092529296875 85.08685302734375Q38.695556640625 115.13037109375 38.695556640625 152.5218505859375Q38.695556640625 157.0870361328125 39.08685302734375 160.97833251953125Q39.4781494140625 164.86962890625 39.695556640625 167.304443359375H173.8270263671875Q173.609619140625 165.0870361328125 173.609619140625 162.86962890625Q173.609619140625 160.6522216796875 173.609619140625 158.6522216796875Q174.609619140625 133.60888671875 189.63128662109375 118.08721923828125Q204.6529541015625 102.5655517578125 229.131103515625 95.782958984375Q253.6092529296875 89.0003662109375 281.3048095703125 89.0003662109375Q304.6959228515625 89.0003662109375 327.3262939453125 93.73944091796875Q349.9566650390625 98.478515625 365.34796142578125 110.00018310546875Q380.7392578125 121.5218505859375 380.7392578125 141.304443359375Q380.7392578125 165.3477783203125 361.28277587890625 178.15203857421875Q341.8262939453125 190.956298828125 310.1959228515625 199.19537353515625Q278.5655517578125 207.4344482421875 242.2177734375 216.5648193359375Q208.34814453125 224.91259765625 174.36981201171875 235.58648681640625Q140.3914794921875 246.2603759765625 112.69573974609375 263.36907958984375Q85 280.477783203125 67.8477783203125 307.91259765625Q50.695556640625 335.347412109375 50.695556640625 376.65185546875Q50.695556640625 418.4781494140625 68.67388916015625 448.7825927734375Q86.6522216796875 479.0870361328125 118.28277587890625 498.804443359375Q149.913330078125 518.5218505859375 192.32647705078125 528.1957397460938Q234.7396240234375 537.86962890625 283.6092529296875 537.86962890625Q330.1744384765625 537.86962890625 369.9788818359375 528.1957397460938Q409.7833251953125 518.5218505859375 440.13128662109375 500.0218505859375Q470.479248046875 481.5218505859375 487.39239501953125 454.26092529296875Q504.3055419921875 427 504.3055419921875 392.6085205078125Q504.3055419921875 386.4781494140625 503.91424560546875 380.02166748046875Q503.52294921875 373.565185546875 503.3055419921875 372.3477783203125H370.3914794921875V379.565185546875Q370.3914794921875 397.695556640625 359.10888671875 410.325927734375Q347.8262939453125 422.956298828125 327.413330078125 430.19537353515625Q307.0003662109375 437.4344482421875 278.261474609375 437.4344482421875Q258.1748046875 437.4344482421875 241.479248046875 434.19537353515625Q224.78369140625 430.956298828125 213.0662841796875 424.825927734375Q201.348876953125 418.695556640625 194.80535888671875 410.13037109375Q188.2618408203125 401.565185546875 188.2618408203125 390.13037109375Q188.2618408203125 372.6522216796875 202.50091552734375 362.41314697265625Q216.739990234375 352.174072265625 240.935546875 344.93499755859375Q265.131103515625 337.6959228515625 293.82666015625 329.5655517578125Q330.261474609375 320.2177734375 369.56591796875 310.58740234375Q408.870361328125 300.95703125 442.8922119140625 285.06573486328125Q476.9140625 269.1744384765625 498.0010986328125 239.63092041015625Q519.088134765625 210.08740234375 519.088134765625 160.1307373046875Q519.088134765625 112.3914794921875 500.60980224609375 79.0218505859375Q482.1314697265625 45.6522216796875 449.21832275390625 25.82611083984375Q416.30517578125 6 372.2833251953125 -3.0Q328.261474609375 -12 277.391845703125 -12Z"/></g>
</svg>